<svg height="214" viewBox="0 0 360 214" width="360" xmlns="http://www.w3.org/2000/svg" xmlns:xlink="http://www.w3.org/1999/xlink"><linearGradient id="a"><stop offset="0" stop-color="#582c76"/><stop offset="1" stop-color="#da246d"/></linearGradient><linearGradient id="b" x1="72.962345%" x2="8.358237%" xlink:href="#a" y1="89.412842%" y2="-10.880524%"/><linearGradient id="c" x1="100%" x2="42.249755%" y1="87.604869%" y2="30.505898%"><stop offset="0" stop-color="#c12253"/><stop offset=".999399038" stop-color="#f1a944"/></linearGradient><linearGradient id="d" x1="66.360676%" x2="0%" y1="120.619285%" y2="9.404068%"><stop offset="0" stop-color="#c12253"/><stop offset="1" stop-color="#f1a944"/></linearGradient><linearGradient id="e" x1="100%" x2="16.421907%" xlink:href="#a" y1="50%" y2="-21.060112%"/><g fill="none" fill-rule="evenodd"><path d="m354.761435 0c.850929 0 1.687128.22206471 2.425942.64424406 2.298696 1.31354025 3.126735 4.21017399 1.895789 6.53269675l-.076332.13864517-56.940638 99.64461402 56.940638 99.646116c1.339811 2.344669.525213 5.33153-1.819457 6.671341-.738814.42218-1.575013.644245-2.425942.644245h-236.056439l122.241086-213.921902z" fill="url(#b)"/><path d="m4.88964346 213.921902c-2.70047551 0-4.88964346-2.189168-4.88964346-4.889644 0-.85093.22206471-1.687129.64424406-2.425942l113.81535194-199.17686704c1.339811-2.34466935 4.326673-3.15926795 6.671342-1.81945689.758048.4331701 1.386287 1.06140922 1.819457 1.81945689l117.995687 206.49245304h-122.241086z" fill="url(#c)"/><path d="m57.5844525 106.960951 61.1205435 106.960951h-113.81535254c-2.70047551 0-4.88964346-2.189168-4.88964346-4.889644 0-.85093.22206471-1.687129.64424406-2.425942z" fill="url(#d)"/><path d="m302.066626 106.960951 56.940208-99.64536502c1.339811-2.34466935.525213-5.33153087-1.819457-6.67134192-.738814-.42217935-1.575013-.64424406-2.425942-.64424406h-113.815353z" fill="url(#e)"/><g fill="#000" fill-opacity=".2"><path d="m57.5844525 106.960951 61.1205435 106.960951h-12.224109z"/><path d="m240.946082 0 66.6768 97.2366-5.556256 9.724351z"/><path d="m186.370939 95.5063385 66.799252 118.4155635h-12.224109l-61.120543-106.960951z"/></g></g></svg>