<svg xmlns="http://www.w3.org/2000/svg" width="600" height="89" fill="none"><style>@media (prefers-color-scheme:dark){.a{fill:#fff}}</style><path class="a" fill="#000" d="M176.451 69.38V47.02c0-6.05.615-12.276 8.068-12.539 4.296 0 6.839 2.543 6.839 8.243V69.38h12.276V47.02c0-6.051.614-12.277 8.067-12.54 4.297 0 6.84 2.543 6.84 8.243V69.38h12.451V40.883c0-11.05-6.225-16.66-14.292-16.66-5.612 0-10.436 3.681-12.539 10.434h-4.122c-1.228-6.927-6.138-10.435-11.575-10.435-6.312 0-10.259 4.12-11.75 10.435h-5.523c1.841-2.543 3.507-6.402 3.507-9.12H164V69.38zm73.768 1.403c7.103 0 11.399-4.208 13.416-10.522h4.12c.177 6.664 1.842 9.12 9.559 9.12h5.173v-9.47h-3.858c-2.306 0-2.616-.333-2.63-2.455V41.233c0-11.311-7.016-17.01-19.555-17.01-12.364 0-20.08 6.4-20.782 13.415l11.225 2.456c1.052-4.297 4.12-6.928 9.645-6.928 4.911 0 7.19 2.192 7.19 6.05v1.667c-16.046 1.578-27.27 5.436-27.533 17.274 0 7.54 6.049 12.626 14.03 12.626m4.296-9.119c-3.77 0-5.7-1.842-5.7-4.736 0-5.61 6.139-7.189 14.907-8.33v2.807c0 6.927-4.208 10.26-9.207 10.26m59.464 7.717v-9.908h-9.471c-2.718 0-3.858-1.14-3.858-3.859V35.008h11.4v-9.471h-11.399V11.77h-12.452v13.767h-9.207v9.47h9.207v22.886c0 6.84 4.209 11.488 11.136 11.488zm25.517 1.402c10.171 0 18.326-5.524 21.658-14.03l-11.75-4.208c-2.017 5.612-5.173 8.33-10.172 8.33-5.875 0-10.697-4.736-10.697-13.504 0-8.767 4.647-13.328 10.61-13.328 4.559 0 8.067 2.718 9.821 7.629l11.486-4.297c-2.981-7.717-10.61-13.153-20.869-13.153-13.24 0-23.587 9.207-23.587 23.15 0 14.029 9.995 23.411 23.5 23.411m39.069-1.402V48.599c0-4.823.351-8.68 2.894-11.75 1.316-1.579 3.245-2.368 5.875-2.368 4.473 0 7.016 2.63 7.016 8.243V69.38h12.451V40.356c0-9.82-5.349-16.134-14.907-16.134-6.664 0-11.224 4.735-13.416 11.4h-5.437c3.421-4.824 5.524-9.821 5.524-18.328V8h-12.45v61.38zm47.326 0V8H413.44v61.38zm20.156 1.402c7.102 0 11.399-4.208 13.415-10.522h4.12c.177 6.664 1.843 9.12 9.56 9.12h5.173v-9.47h-3.859c-2.367 0-2.63-.351-2.63-2.632V41.235c0-11.311-7.015-17.01-19.554-17.01-12.364 0-20.08 6.4-20.782 13.415l11.225 2.456c1.051-4.297 4.12-6.928 9.645-6.928 4.91 0 7.189 2.192 7.189 6.05v1.667c-16.045 1.578-27.27 5.436-27.533 17.274 0 7.54 6.05 12.626 14.031 12.626m4.295-9.118c-3.77 0-5.699-1.842-5.699-4.736 0-5.612 6.139-7.19 14.906-8.33v2.806c0 6.928-4.208 10.26-9.207 10.26M489.1 86.479c7.717 0 11.137-3.156 13.767-10.083l18.327-50.86h-12.979l-5.173 16.048c-.876 2.718-1.403 5.085-1.665 7.277-.176 2.193-.264 5.437-.351 9.821h-4.648c-.087-7.014-.526-11.048-2.894-16.31l-7.278-16.835h-13.504l21.221 43.844-.789 2.279c-1.404 3.858-2.456 4.91-5.7 4.91h-11.4v9.91zm52.886-15.696q8.944 0 13.944-3.683c3.332-2.543 5.787-5.524 7.365-9.119l-11.137-4.296c-2.103 4.822-4.997 7.628-10.171 7.628-5.612 0-9.47-3.507-9.82-10.873h30.952c.087-.965.087-2.017.087-2.981 0-13.416-7.891-23.237-21.307-23.237-12.626 0-22.184 9.557-22.184 23.15 0 14.292 8.856 23.411 22.272 23.411m8.858-29.111h-18.239c.789-5.525 4.297-8.506 9.294-8.506 5.262 0 8.331 2.98 8.945 8.506m31.443 27.707V52.546c0-11.75 3.77-15.258 12.889-15.258 1.578 0 3.156.087 4.823.264V24.748c-.351-.07-.982-.084-1.894-.088h-.736c-9.296 0-12.715 4.823-14.82 14.205h-5.261c2.104-3.507 3.771-9.031 3.771-13.328h-11.224V69.38z"/><path fill="#00D1B2" d="M96.666 5.157v18.93a5.156 5.156 0 0 0 8.802 3.644l1.731-1.73A5.156 5.156 0 0 1 116 29.646v36.973a5.16 5.16 0 0 1-1.51 3.646L99.023 85.73a5.156 5.156 0 0 1-8.801-3.645v-18.93a5.155 5.155 0 0 0-8.8-3.645l-27.51 27.51a5.155 5.155 0 0 1-8.801-3.646V63.156a5.156 5.156 0 0 0-8.802-3.645L8.802 87.02A5.155 5.155 0 0 1 0 83.374V46.4c0-1.367.544-2.679 1.51-3.645L42.755 1.511a5.155 5.155 0 0 1 8.801 3.646v20.218a5.155 5.155 0 0 0 8.801 3.645L87.866 1.511a5.156 5.156 0 0 1 8.8 3.646"/></svg>